<svg width="1080" height="1080" viewBox="0 0 1080 1080" fill="none" xmlns="http://www.w3.org/2000/svg">
<circle cx="540" cy="540" r="540" fill="#6E61FF"/>
<g clip-path="url(#clip0_140_12)">
<path d="M810 634.097C809.136 669.91 756.691 669.402 756 633.633C756 619.311 750.311 605.576 740.184 595.449C730.057 585.322 716.322 579.633 702 579.633C687.678 579.633 673.943 585.322 663.816 595.449C653.689 605.576 648 619.311 648 633.633C647.87 648.515 636.066 661 621.184 661.097C617.623 661.121 614.092 660.441 610.795 659.095C607.498 657.749 604.5 655.764 601.973 653.254C599.446 650.745 597.441 647.76 596.073 644.472C594.704 641.184 594 637.658 594 634.097C596.43 492.131 807.602 492.164 810 634.097Z" fill="white"/>
<path d="M702 499C724.368 499 742.5 480.868 742.5 458.5C742.5 436.132 724.368 418 702 418C679.632 418 661.5 436.132 661.5 458.5C661.5 480.868 679.632 499 702 499Z" fill="white"/>
<path d="M648 634.097C647.136 669.91 594.691 669.402 594 633.633C594 619.311 588.311 605.576 578.184 595.449C568.057 585.322 554.322 579.633 540 579.633C525.678 579.633 511.943 585.322 501.816 595.449C491.689 605.576 486 619.311 486 633.633C485.87 648.515 474.066 661 459.184 661.097C455.622 661.121 452.092 660.441 448.795 659.095C445.498 657.749 442.5 655.764 439.973 653.254C437.446 650.745 435.441 647.76 434.073 644.472C432.704 641.184 432 637.658 432 634.097C434.43 492.131 645.602 492.164 648 634.097Z" fill="white"/>
<path d="M540 499C562.368 499 580.5 480.868 580.5 458.5C580.5 436.132 562.368 418 540 418C517.632 418 499.5 436.132 499.5 458.5C499.5 480.868 517.632 499 540 499Z" fill="white"/>
<path d="M486 634.097C485.136 669.91 432.691 669.402 432 633.633C432 619.311 426.311 605.576 416.184 595.449C406.057 585.322 392.322 579.633 378 579.633C363.678 579.633 349.943 585.322 339.816 595.449C329.689 605.576 324 619.311 324 633.633C323.87 648.515 312.12 661 297.184 661.097C293.622 661.121 290.092 660.441 286.795 659.095C283.498 657.749 280.5 655.764 277.973 653.254C275.446 650.745 273.441 647.76 272.073 644.472C270.704 641.184 270 637.658 270 634.097C272.43 492.131 483.602 492.164 486 634.097Z" fill="white"/>
<path d="M378 499C400.368 499 418.5 480.868 418.5 458.5C418.5 436.132 400.368 418 378 418C355.632 418 337.5 436.132 337.5 458.5C337.5 480.868 355.632 499 378 499Z" fill="white"/>
</g>
<defs>
<clipPath id="clip0_140_12">
<rect width="540" height="243.097" fill="white" transform="translate(270 418)"/>
</clipPath>
</defs>
</svg>
