<svg width="830" height="532" viewBox="0 0 830 532" fill="none" xmlns="http://www.w3.org/2000/svg">
<mask id="path-1-outside-1_145_902" maskUnits="userSpaceOnUse" x="146" y="0" width="438" height="502" fill="black">
<rect fill="white" x="146" width="438" height="502"/>
<path d="M150 19C150 10.7157 156.716 4 165 4H565C573.284 4 580 10.7157 580 19V502H150V19Z"/>
</mask>
<path d="M150 19C150 10.7157 156.716 4 165 4H565C573.284 4 580 10.7157 580 19V502H150V19Z" fill="white"/>
<path d="M146 19C146 8.50659 154.507 0 165 0H565C575.493 0 584 8.50659 584 19H576C576 12.9249 571.075 8 565 8H165C158.925 8 154 12.9249 154 19H146ZM580 502H150H580ZM146 502V19C146 8.50659 154.507 0 165 0V8C158.925 8 154 12.9249 154 19V502H146ZM565 0C575.493 0 584 8.50659 584 19V502H576V19C576 12.9249 571.075 8 565 8V0Z" fill="black" mask="url(#path-1-outside-1_145_902)"/>
<path d="M296.049 135.52C296.049 129.256 300.117 125.296 306.489 125.296C312.861 125.296 316.425 128.824 316.425 134.44V135.304H311.673V134.368C311.673 131.488 309.945 129.544 306.489 129.544C302.925 129.544 300.801 132.136 300.801 135.304V141.496C300.801 144.952 302.781 147.256 306.489 147.256C310.269 147.256 311.673 145.276 311.673 142.432V141.496H316.425V142.36C316.425 147.94 313.149 151.504 306.489 151.504C300.297 151.504 296.049 147.976 296.049 141.28V135.52ZM318.299 142.072C318.299 136.456 322.403 132.64 327.659 132.64C332.915 132.64 337.019 136.456 337.019 142.072C337.019 147.688 332.915 151.504 327.659 151.504C322.403 151.504 318.299 147.688 318.299 142.072ZM322.835 142.072C322.835 145.312 324.779 147.472 327.659 147.472C330.539 147.472 332.483 145.312 332.483 142.072C332.483 138.832 330.539 136.672 327.659 136.672C324.779 136.672 322.835 138.832 322.835 142.072ZM339.981 133.144H344.445V136.024H344.949C345.669 134.368 347.325 132.856 350.601 132.856C354.561 132.856 357.549 135.7 357.549 140.344V151H353.013V140.776C353.013 138.292 351.573 136.816 348.981 136.816C346.065 136.816 344.517 138.616 344.517 141.784V151H339.981V133.144ZM361.356 133.144H365.82V136.024H366.324C367.044 134.368 368.7 132.856 371.976 132.856C375.936 132.856 378.924 135.7 378.924 140.344V151H374.388V140.776C374.388 138.292 372.948 136.816 370.356 136.816C367.44 136.816 365.892 138.616 365.892 141.784V151H361.356V133.144ZM381.651 141.928C381.651 136.528 385.359 132.64 390.615 132.64C395.799 132.64 399.291 136.276 399.291 141.64V143.404H386.295C386.475 145.78 388.167 147.616 390.759 147.616C393.279 147.616 394.611 146.212 395.223 144.952L398.931 147.112C397.707 148.984 395.619 151.504 390.831 151.504C385.503 151.504 381.651 147.472 381.651 141.928ZM386.331 140.236H394.683C394.359 137.968 392.919 136.528 390.579 136.528C388.023 136.528 386.691 138.04 386.331 140.236ZM401.022 142.072C401.022 136.528 405.126 132.64 410.31 132.64C415.278 132.64 418.374 135.412 419.31 139.48L414.846 140.632C414.522 138.472 413.118 136.672 410.382 136.672C407.646 136.672 405.558 138.832 405.558 142.072C405.558 145.312 407.466 147.472 410.382 147.472C413.118 147.472 414.378 145.888 414.846 143.548L419.31 144.664C418.446 148.732 415.314 151.504 410.31 151.504C405.126 151.504 401.022 147.616 401.022 142.072ZM420.058 133.144H424.594V127.6H429.13V133.144H434.026V137.032H429.13V146.032C429.13 146.752 429.49 147.112 430.138 147.112H433.018V151H428.122C426.106 151 424.594 149.56 424.594 147.544V137.032H420.058V133.144Z" fill="black"/>
<path d="M250.707 177.2H263.883V179H258.267V194H256.299V179H250.707V177.2ZM263.001 188.144C263.001 184.52 265.473 181.952 268.977 181.952C272.457 181.952 274.929 184.52 274.929 188.144C274.929 191.768 272.457 194.336 268.977 194.336C265.473 194.336 263.001 191.768 263.001 188.144ZM264.825 188.144C264.825 190.928 266.481 192.656 268.977 192.656C271.449 192.656 273.105 190.88 273.105 188.144C273.105 185.408 271.449 183.656 268.977 183.656C266.481 183.656 264.825 185.456 264.825 188.144ZM288.465 194H286.665V191.912H286.329C285.729 193.064 284.601 194.216 282.225 194.216C279.753 194.216 277.617 192.632 277.617 189.392V182.288H279.441V189.224C279.441 191.504 280.689 192.584 282.729 192.584C285.033 192.584 286.617 191.096 286.617 188.312V182.288H288.465V194ZM290.57 182.288H294.122V178.064H295.97V182.288H299.69V183.896H295.97V191.696C295.97 192.176 296.162 192.392 296.594 192.392H299.018V194H295.922C294.842 194 294.122 193.28 294.122 192.152V183.896H290.57V182.288ZM320.913 177.2V194H319.137V191.984H318.801C318.129 193.16 316.953 194.336 314.529 194.336C311.409 194.336 308.985 191.816 308.985 188.144C308.985 184.472 311.409 181.952 314.529 181.952C316.953 181.952 318.129 183.128 318.801 184.28H319.089V177.2H320.913ZM314.961 183.608C312.537 183.608 310.833 185.288 310.833 188.144C310.833 190.976 312.537 192.656 314.961 192.656C317.433 192.656 319.089 190.904 319.089 188.144C319.089 185.36 317.433 183.608 314.961 183.608ZM324.063 185.48C324.927 183.656 326.799 181.952 329.727 181.952C332.895 181.952 334.815 183.8 334.815 186.608V194H333.015V192.032H332.679C332.103 193.16 330.783 194.336 328.263 194.336C325.719 194.336 323.895 192.992 323.895 190.88C323.895 188.744 325.647 187.664 328.359 187.4L332.991 186.968V186.512C332.991 184.736 331.791 183.608 329.679 183.608C327.567 183.608 326.343 184.688 325.671 186.224L324.063 185.48ZM325.743 190.832C325.743 192.104 326.871 192.776 328.503 192.776C331.335 192.776 332.991 191.12 332.991 188.696V188.456L328.599 188.864C326.967 189.008 325.743 189.512 325.743 190.832ZM338.277 182.288H340.053V184.376H340.389C340.989 183.224 342.117 182.096 344.493 182.096C346.965 182.096 349.125 183.68 349.125 186.92V194H347.277V187.064C347.277 184.784 346.029 183.704 343.989 183.704C341.685 183.704 340.101 185.192 340.101 187.976V194H338.277V182.288ZM352.31 185.336C352.31 183.176 354.326 181.952 356.726 181.952C359.078 181.952 360.758 182.888 362.534 185.048L361.118 186.008C359.87 184.256 358.334 183.512 356.75 183.512C355.238 183.512 354.134 184.136 354.134 185.312C354.134 186.608 355.406 186.824 356.846 187.04L357.95 187.208C360.662 187.616 362.582 188.312 362.582 190.568C362.582 192.824 360.518 194.336 357.47 194.336C354.158 194.336 352.262 192.344 351.398 190.496L353.054 189.656C353.822 191.6 355.406 192.728 357.518 192.728C359.438 192.728 360.734 191.888 360.734 190.616C360.734 189.32 359.27 189.104 357.734 188.888L356.63 188.72C354.062 188.36 352.31 187.544 352.31 185.336ZM383.481 194H381.681V191.912H381.345C380.745 193.064 379.617 194.216 377.241 194.216C374.769 194.216 372.633 192.632 372.633 189.392V182.288H374.457V189.224C374.457 191.504 375.705 192.584 377.745 192.584C380.049 192.584 381.633 191.096 381.633 188.312V182.288H383.481V194ZM387.05 182.288H388.826V184.376H389.162C389.762 183.224 390.89 182.096 393.266 182.096C395.738 182.096 397.898 183.68 397.898 186.92V194H396.05V187.064C396.05 184.784 394.802 183.704 392.762 183.704C390.458 183.704 388.874 185.192 388.874 187.976V194H387.05V182.288ZM400.555 188.048C400.555 184.616 403.003 181.928 406.387 181.928C409.747 181.928 412.051 184.304 412.051 187.76V188.744H402.475C402.619 191.192 404.251 192.704 406.603 192.704C408.523 192.704 409.579 191.72 410.227 190.376L411.835 191.216C410.995 192.728 409.555 194.336 406.627 194.336C402.979 194.336 400.555 191.6 400.555 188.048ZM402.475 187.232H410.131C410.083 184.904 408.619 183.56 406.387 183.56C404.179 183.56 402.691 184.928 402.475 187.232ZM422.013 185.336C422.013 183.176 424.029 181.952 426.429 181.952C428.781 181.952 430.461 182.888 432.237 185.048L430.821 186.008C429.573 184.256 428.037 183.512 426.453 183.512C424.941 183.512 423.837 184.136 423.837 185.312C423.837 186.608 425.109 186.824 426.549 187.04L427.653 187.208C430.365 187.616 432.285 188.312 432.285 190.568C432.285 192.824 430.221 194.336 427.173 194.336C423.861 194.336 421.965 192.344 421.101 190.496L422.757 189.656C423.525 191.6 425.109 192.728 427.221 192.728C429.141 192.728 430.437 191.888 430.437 190.616C430.437 189.32 428.973 189.104 427.437 188.888L426.333 188.72C423.765 188.36 422.013 187.544 422.013 185.336ZM434.235 188.048C434.235 184.616 436.683 181.928 440.067 181.928C443.427 181.928 445.731 184.304 445.731 187.76V188.744H436.155C436.299 191.192 437.931 192.704 440.283 192.704C442.203 192.704 443.259 191.72 443.907 190.376L445.515 191.216C444.675 192.728 443.235 194.336 440.307 194.336C436.659 194.336 434.235 191.6 434.235 188.048ZM436.155 187.232H443.811C443.763 184.904 442.299 183.56 440.067 183.56C437.859 183.56 436.371 184.928 436.155 187.232ZM459.16 194H457.36V191.912H457.024C456.424 193.064 455.296 194.216 452.92 194.216C450.448 194.216 448.312 192.632 448.312 189.392V182.288H450.136V189.224C450.136 191.504 451.384 192.584 453.424 192.584C455.728 192.584 457.312 191.096 457.312 188.312V182.288H459.16V194ZM464.554 177.2V194H462.73V177.2H464.554ZM467.376 188.048C467.376 184.616 469.824 181.928 473.208 181.928C476.568 181.928 478.872 184.304 478.872 187.76V188.744H469.296C469.44 191.192 471.072 192.704 473.424 192.704C475.344 192.704 476.4 191.72 477.048 190.376L478.656 191.216C477.816 192.728 476.376 194.336 473.448 194.336C469.8 194.336 467.376 191.6 467.376 188.048ZM469.296 187.232H476.952C476.904 184.904 475.44 183.56 473.208 183.56C471 183.56 469.512 184.928 469.296 187.232ZM303.778 214.48C304.642 212.656 306.514 210.952 309.442 210.952C312.61 210.952 314.53 212.8 314.53 215.608V223H312.73V221.032H312.394C311.818 222.16 310.498 223.336 307.978 223.336C305.434 223.336 303.61 221.992 303.61 219.88C303.61 217.744 305.362 216.664 308.074 216.4L312.706 215.968V215.512C312.706 213.736 311.506 212.608 309.394 212.608C307.282 212.608 306.058 213.688 305.386 215.224L303.778 214.48ZM305.458 219.832C305.458 221.104 306.586 221.776 308.218 221.776C311.05 221.776 312.706 220.12 312.706 217.696V217.456L308.314 217.864C306.682 218.008 305.458 218.512 305.458 219.832ZM317.991 227.8V211.288H319.767V213.304H320.103C320.775 212.128 321.951 210.952 324.375 210.952C327.495 210.952 329.919 213.472 329.919 217.144C329.919 220.816 327.495 223.336 324.375 223.336C321.951 223.336 320.775 222.16 320.103 221.008H319.815V227.8H317.991ZM323.943 221.68C326.391 221.68 328.071 220 328.071 217.144C328.071 214.312 326.391 212.608 323.943 212.608C321.471 212.608 319.815 214.384 319.815 217.144C319.815 219.928 321.471 221.68 323.943 221.68ZM332.757 227.8V211.288H334.533V213.304H334.869C335.541 212.128 336.717 210.952 339.141 210.952C342.261 210.952 344.685 213.472 344.685 217.144C344.685 220.816 342.261 223.336 339.141 223.336C336.717 223.336 335.541 222.16 334.869 221.008H334.581V227.8H332.757ZM338.709 221.68C341.157 221.68 342.837 220 342.837 217.144C342.837 214.312 341.157 212.608 338.709 212.608C336.237 212.608 334.581 214.384 334.581 217.144C334.581 219.928 336.237 221.68 338.709 221.68ZM349.347 206.2V223H347.523V206.2H349.347ZM352.265 207.64C352.265 206.752 352.961 206.08 353.849 206.08C354.737 206.08 355.433 206.752 355.433 207.64C355.433 208.528 354.737 209.2 353.849 209.2C352.961 209.2 352.265 208.528 352.265 207.64ZM354.761 211.288V223H352.937V211.288H354.761ZM357.583 217.144C357.583 213.544 360.175 210.952 363.631 210.952C366.703 210.952 368.791 212.92 369.223 215.464L367.399 215.824C367.183 214 365.815 212.656 363.631 212.656C361.207 212.656 359.431 214.504 359.431 217.144C359.431 219.808 361.207 221.656 363.679 221.656C366.031 221.656 367.111 220.192 367.447 218.464L369.271 218.824C368.791 221.152 366.967 223.336 363.679 223.336C360.175 223.336 357.583 220.744 357.583 217.144ZM371.465 214.48C372.329 212.656 374.201 210.952 377.129 210.952C380.297 210.952 382.217 212.8 382.217 215.608V223H380.417V221.032H380.081C379.505 222.16 378.185 223.336 375.665 223.336C373.121 223.336 371.297 221.992 371.297 219.88C371.297 217.744 373.049 216.664 375.761 216.4L380.393 215.968V215.512C380.393 213.736 379.193 212.608 377.081 212.608C374.969 212.608 373.745 213.688 373.073 215.224L371.465 214.48ZM373.145 219.832C373.145 221.104 374.273 221.776 375.905 221.776C378.737 221.776 380.393 220.12 380.393 217.696V217.456L376.001 217.864C374.369 218.008 373.145 218.512 373.145 219.832ZM383.981 211.288H387.533V207.064H389.381V211.288H393.101V212.896H389.381V220.696C389.381 221.176 389.573 221.392 390.005 221.392H392.429V223H389.333C388.253 223 387.533 222.28 387.533 221.152V212.896H383.981V211.288ZM395.015 207.64C395.015 206.752 395.711 206.08 396.599 206.08C397.487 206.08 398.183 206.752 398.183 207.64C398.183 208.528 397.487 209.2 396.599 209.2C395.711 209.2 395.015 208.528 395.015 207.64ZM397.511 211.288V223H395.687V211.288H397.511ZM400.333 217.144C400.333 213.52 402.805 210.952 406.309 210.952C409.789 210.952 412.261 213.52 412.261 217.144C412.261 220.768 409.789 223.336 406.309 223.336C402.805 223.336 400.333 220.768 400.333 217.144ZM402.157 217.144C402.157 219.928 403.813 221.656 406.309 221.656C408.781 221.656 410.437 219.88 410.437 217.144C410.437 214.408 408.781 212.656 406.309 212.656C403.813 212.656 402.157 214.456 402.157 217.144ZM415.093 211.288H416.869V213.376H417.205C417.805 212.224 418.933 211.096 421.309 211.096C423.781 211.096 425.941 212.68 425.941 215.92V223H424.093V216.064C424.093 213.784 422.845 212.704 420.805 212.704C418.501 212.704 416.917 214.192 416.917 216.976V223H415.093V211.288Z" fill="#9D9D9D"/>
<rect x="530" y="203" width="300" height="100" rx="10" fill="#9288FF"/>
<rect x="380" y="432" width="300" height="100" rx="10" fill="#19AFFA"/>
<path d="M489.979 474.2H493.027L498.547 491H496.435L495.091 486.752H487.915L486.571 491H484.459L489.979 474.2ZM488.467 484.976H494.515L491.635 475.976H491.347L488.467 484.976ZM500.54 482.336C500.54 480.176 502.556 478.952 504.956 478.952C507.308 478.952 508.988 479.888 510.764 482.048L509.348 483.008C508.1 481.256 506.564 480.512 504.98 480.512C503.468 480.512 502.364 481.136 502.364 482.312C502.364 483.608 503.636 483.824 505.076 484.04L506.18 484.208C508.892 484.616 510.812 485.312 510.812 487.568C510.812 489.824 508.748 491.336 505.7 491.336C502.388 491.336 500.492 489.344 499.628 487.496L501.284 486.656C502.052 488.6 503.636 489.728 505.748 489.728C507.668 489.728 508.964 488.888 508.964 487.616C508.964 486.32 507.5 486.104 505.964 485.888L504.86 485.72C502.292 485.36 500.54 484.544 500.54 482.336ZM512.066 479.288H515.618V475.064H517.466V479.288H521.186V480.896H517.466V488.696C517.466 489.176 517.658 489.392 518.09 489.392H520.514V491H517.418C516.338 491 515.618 490.28 515.618 489.152V480.896H512.066V479.288ZM534.477 491H532.677V488.912H532.341C531.741 490.064 530.613 491.216 528.237 491.216C525.765 491.216 523.629 489.632 523.629 486.392V479.288H525.453V486.224C525.453 488.504 526.701 489.584 528.741 489.584C531.045 489.584 532.629 488.096 532.629 485.312V479.288H534.477V491ZM537.278 485.144C537.278 481.544 539.87 478.952 543.326 478.952C546.398 478.952 548.486 480.92 548.918 483.464L547.094 483.824C546.878 482 545.51 480.656 543.326 480.656C540.902 480.656 539.126 482.504 539.126 485.144C539.126 487.808 540.902 489.656 543.374 489.656C545.726 489.656 546.806 488.192 547.142 486.464L548.966 486.824C548.486 489.152 546.662 491.336 543.374 491.336C539.87 491.336 537.278 488.744 537.278 485.144ZM550.942 485.048C550.942 481.616 553.39 478.928 556.774 478.928C560.134 478.928 562.438 481.304 562.438 484.76V485.744H552.862C553.006 488.192 554.638 489.704 556.99 489.704C558.91 489.704 559.966 488.72 560.614 487.376L562.222 488.216C561.382 489.728 559.942 491.336 557.014 491.336C553.366 491.336 550.942 488.6 550.942 485.048ZM552.862 484.232H560.518C560.47 481.904 559.006 480.56 556.774 480.56C554.566 480.56 553.078 481.928 552.862 484.232ZM564.783 482.336C564.783 480.176 566.799 478.952 569.199 478.952C571.551 478.952 573.231 479.888 575.007 482.048L573.591 483.008C572.343 481.256 570.807 480.512 569.223 480.512C567.711 480.512 566.607 481.136 566.607 482.312C566.607 483.608 567.879 483.824 569.319 484.04L570.423 484.208C573.135 484.616 575.055 485.312 575.055 487.568C575.055 489.824 572.991 491.336 569.943 491.336C566.631 491.336 564.735 489.344 563.871 487.496L565.527 486.656C566.295 488.6 567.879 489.728 569.991 489.728C571.911 489.728 573.207 488.888 573.207 487.616C573.207 486.32 571.743 486.104 570.207 485.888L569.103 485.72C566.535 485.36 564.783 484.544 564.783 482.336Z" fill="white"/>
<rect y="291" width="300" height="100" rx="10" fill="#FF8566"/>
<path d="M619.832 245.2H621.8V262H619.832V245.2ZM625.433 250.288H627.209V252.376H627.545C628.145 251.224 629.273 250.096 631.649 250.096C634.121 250.096 636.281 251.68 636.281 254.92V262H634.433V255.064C634.433 252.784 633.185 251.704 631.145 251.704C628.841 251.704 627.257 253.192 627.257 255.976V262H625.433V250.288ZM638.104 250.288H641.656V247.072C641.656 245.92 642.376 245.2 643.48 245.2H646.48V246.808H644.128C643.696 246.808 643.48 247.024 643.48 247.504V250.288H647.104V251.896H643.48V262H641.656V251.896H638.104V250.288ZM648.524 256.144C648.524 252.52 650.996 249.952 654.5 249.952C657.98 249.952 660.452 252.52 660.452 256.144C660.452 259.768 657.98 262.336 654.5 262.336C650.996 262.336 648.524 259.768 648.524 256.144ZM650.348 256.144C650.348 258.928 652.004 260.656 654.5 260.656C656.972 260.656 658.628 258.88 658.628 256.144C658.628 253.408 656.972 251.656 654.5 251.656C652.004 251.656 650.348 253.456 650.348 256.144ZM662.904 253.336C662.904 251.176 664.92 249.952 667.32 249.952C669.672 249.952 671.352 250.888 673.128 253.048L671.712 254.008C670.464 252.256 668.928 251.512 667.344 251.512C665.832 251.512 664.728 252.136 664.728 253.312C664.728 254.608 666 254.824 667.44 255.04L668.544 255.208C671.256 255.616 673.176 256.312 673.176 258.568C673.176 260.824 671.112 262.336 668.064 262.336C664.752 262.336 662.856 260.344 661.992 258.496L663.648 257.656C664.416 259.6 666 260.728 668.112 260.728C670.032 260.728 671.328 259.888 671.328 258.616C671.328 257.32 669.864 257.104 668.328 256.888L667.224 256.72C664.656 256.36 662.904 255.544 662.904 253.336ZM682.866 255.376V251.824C682.866 247.408 685.338 244.864 689.394 244.864C693.354 244.864 695.466 247.264 695.466 250.96V251.176H693.498V250.96C693.498 248.32 692.202 246.664 689.394 246.664C686.49 246.664 684.834 248.512 684.834 251.752V255.448C684.834 258.688 686.49 260.536 689.37 260.536C692.25 260.536 693.498 258.88 693.498 256.288V255.736H688.554V253.96H695.466V256.288C695.466 260.008 693.234 262.336 689.37 262.336C685.29 262.336 682.866 259.792 682.866 255.376ZM697.79 256.144C697.79 252.52 700.262 249.952 703.766 249.952C707.246 249.952 709.718 252.52 709.718 256.144C709.718 259.768 707.246 262.336 703.766 262.336C700.262 262.336 697.79 259.768 697.79 256.144ZM699.614 256.144C699.614 258.928 701.27 260.656 703.766 260.656C706.238 260.656 707.894 258.88 707.894 256.144C707.894 253.408 706.238 251.656 703.766 251.656C701.27 251.656 699.614 253.456 699.614 256.144ZM723.254 262H721.454V259.912H721.118C720.518 261.064 719.39 262.216 717.014 262.216C714.542 262.216 712.406 260.632 712.406 257.392V250.288H714.23V257.224C714.23 259.504 715.478 260.584 717.518 260.584C719.822 260.584 721.406 259.096 721.406 256.312V250.288H723.254V262ZM725.623 250.288H727.615L731.287 260.2H731.575L735.247 250.288H737.239L732.727 262H730.135L725.623 250.288ZM737.404 260.68C737.404 259.744 738.148 259.024 739.06 259.024C739.996 259.024 740.716 259.744 740.716 260.68C740.716 261.616 739.996 262.336 739.06 262.336C738.148 262.336 737.404 261.616 737.404 260.68Z" fill="white"/>
<path d="M97.9998 333.2H99.9678V348.2H108.584V350H97.9998V333.2ZM110.122 344.048C110.122 340.616 112.57 337.928 115.954 337.928C119.314 337.928 121.618 340.304 121.618 343.76V344.744H112.042C112.186 347.192 113.818 348.704 116.17 348.704C118.09 348.704 119.146 347.72 119.794 346.376L121.402 347.216C120.562 348.728 119.122 350.336 116.194 350.336C112.546 350.336 110.122 347.6 110.122 344.048ZM112.042 343.232H119.698C119.65 340.904 118.186 339.56 115.954 339.56C113.746 339.56 112.258 340.928 112.042 343.232ZM123.962 341.336C123.962 339.176 125.978 337.952 128.378 337.952C130.73 337.952 132.41 338.888 134.186 341.048L132.77 342.008C131.522 340.256 129.986 339.512 128.402 339.512C126.89 339.512 125.786 340.136 125.786 341.312C125.786 342.608 127.058 342.824 128.498 343.04L129.602 343.208C132.314 343.616 134.234 344.312 134.234 346.568C134.234 348.824 132.17 350.336 129.122 350.336C125.81 350.336 123.914 348.344 123.05 346.496L124.706 345.656C125.474 347.6 127.058 348.728 129.17 348.728C131.09 348.728 132.386 347.888 132.386 346.616C132.386 345.32 130.922 345.104 129.386 344.888L128.282 344.72C125.714 344.36 123.962 343.544 123.962 341.336ZM148.581 333.2H151.629L157.149 350H155.037L153.693 345.752H146.517L145.173 350H143.061L148.581 333.2ZM147.069 343.976H153.117L150.237 334.976H149.949L147.069 343.976ZM158.71 334.64C158.71 333.752 159.406 333.08 160.294 333.08C161.182 333.08 161.878 333.752 161.878 334.64C161.878 335.528 161.182 336.2 160.294 336.2C159.406 336.2 158.71 335.528 158.71 334.64ZM161.206 338.288V350H159.382V338.288H161.206ZM175.956 333.2V350H174.18V347.984H173.844C173.172 349.16 171.996 350.336 169.572 350.336C166.452 350.336 164.028 347.816 164.028 344.144C164.028 340.472 166.452 337.952 169.572 337.952C171.996 337.952 173.172 339.128 173.844 340.28H174.132V333.2H175.956ZM170.004 339.608C167.58 339.608 165.876 341.288 165.876 344.144C165.876 346.976 167.58 348.656 170.004 348.656C172.476 348.656 174.132 346.904 174.132 344.144C174.132 341.36 172.476 339.608 170.004 339.608ZM178.794 344.048C178.794 340.616 181.242 337.928 184.626 337.928C187.986 337.928 190.29 340.304 190.29 343.76V344.744H180.714C180.858 347.192 182.49 348.704 184.842 348.704C186.762 348.704 187.818 347.72 188.466 346.376L190.074 347.216C189.234 348.728 187.794 350.336 184.866 350.336C181.218 350.336 178.794 347.6 178.794 344.048ZM180.714 343.232H188.37C188.322 340.904 186.858 339.56 184.626 339.56C182.418 339.56 180.93 340.928 180.714 343.232ZM192.634 341.336C192.634 339.176 194.65 337.952 197.05 337.952C199.402 337.952 201.082 338.888 202.858 341.048L201.442 342.008C200.194 340.256 198.658 339.512 197.074 339.512C195.562 339.512 194.458 340.136 194.458 341.312C194.458 342.608 195.73 342.824 197.17 343.04L198.274 343.208C200.986 343.616 202.906 344.312 202.906 346.568C202.906 348.824 200.842 350.336 197.794 350.336C194.482 350.336 192.586 348.344 191.722 346.496L193.378 345.656C194.146 347.6 195.73 348.728 197.842 348.728C199.762 348.728 201.058 347.888 201.058 346.616C201.058 345.32 199.594 345.104 198.058 344.888L196.954 344.72C194.386 344.36 192.634 343.544 192.634 341.336Z" fill="white"/>
</svg>
