<svg xmlns="http://www.w3.org/2000/svg" viewBox="0 0 1080 483.98"><g id="Calque_2" data-name="Calque 2"><g id="Calque_1-2" data-name="Calque 1"><g id="Calque_2-2" data-name="Calque 2"><g id="Calque_1-2-2" data-name="Calque 1-2"><g id="Calque_2-2-2" data-name="Calque 2-2"><g id="Calque_1-2-2-2" data-name="Calque 1-2-2"><path d="M319.39,1A33.38,33.38,0,0,0,296.2,19.16c-2.58,5.24-3,6.72-3.2,13.12-.39,7.89.7,12.73,4.21,18.75a38.67,38.67,0,0,0,12.73,12.33c7,3.83,11.25,4.45,31.55,4.45h18.59l-.24-21.31-.23-21.32-3-5.94A33.56,33.56,0,0,0,332.2.73C326.73-.28,324.94-.28,319.39,1Zm15.23,1.64A31.55,31.55,0,0,1,355.31,19.4c3.21,6.4,3.91,11.63,3.91,30.22V66.25H340.09c-17.34,0-19.68-.15-24-1.64C289.48,55.63,286,20,310.33,5.73a33,33,0,0,1,24.29-3.12Z"/><path d="M317.13,32.91a1.66,1.66,0,0,0,.19,2.34h0a1.68,1.68,0,0,0,1.6.31,2,2,0,0,0,1.25-1.64,1.74,1.74,0,0,0-1.87-1.6A1.77,1.77,0,0,0,317.13,32.91Z"/><path d="M325.09,33.14c-.62,1.64,1,3.28,2.19,2.11,1-1,.39-3.36-.86-3.36C326,31.89,325.41,32.44,325.09,33.14Z"/><path d="M333.53,32.67c-1.33.78-.55,3.13,1,3.13A1.78,1.78,0,0,0,336,34.7a1.71,1.71,0,0,0-1.07-2.17h0A1.68,1.68,0,0,0,333.53,32.67Z"/><path d="M443.56,35.8c-12.18,2.57-19.37,6.17-25.93,12.73-8,8-10.07,16.24-11.71,46.38-1.49,28.43.78,51.07,6,58.88,1.41,2.19,3.05,3.36,6.4,4.61,4,1.56,5.55,1.64,13.51,1.33a83.08,83.08,0,0,0,13.6-1.73,20.46,20.46,0,0,1,4.77-1c.54.47-2,24.37-2.5,24.84-.39.31-13.59,2.89-29.37,5.78-18.66,3.35-30,5.78-32.4,6.87a34.4,34.4,0,0,0-8.05,6.25l-4.45,4.52H311.51l-2-4.29c-1-2.42-3.9-10.15-6.4-17.26l-4.45-12.88-29.6-24.37c-16.32-13.43-30-24.52-30.45-24.67-1.33-.55-2.81,2.49-2.81,5.85,0,2.89.85,4.45,6.87,13,3.82,5.38,8.43,11.71,10.31,14.21l3.35,4.37-6.79,7c-9.37,9.76-9.61,10.31-7.11,21.32,1.1,4.76,2.81,11.71,3.83,15.38,1.56,5.62,2,6.64,3.59,6.87a6.7,6.7,0,0,0,4.06-1.4c1.64-1.17,2.74-1.49,3.67-1.09.71.39,4.53,2.42,8.59,4.52l7.42,3.75-12.1,4.69c-6.64,2.58-19.37,7.65-28.35,11.32-18.74,7.65-16.71,7.89-20.77-1.87-4.53-10.94-5.7-16.64-5.7-29.13-.08-6.25.23-17.65.54-25.38.78-16.16-.23-23.66-4.14-32-4.21-9.13-11.47-14.68-21.78-16.87-10.7-2.18-33,.79-52.48,7.11-13.9,4.53-18.59,7.19-21.08,12.11-1.8,3.51-2,4.68-1.88,13.27,0,10.62,1.33,17.57,5.31,27.65l2.58,6.63L111,203.88c-3.21,12.73-3,13.35,3,16.63l4.22,2.19,3,9.06c3.51,10.85,7.49,19.13,11.16,23.11,2.58,2.89,2.74,2.89,7.66,2.58,5.7-.31,13.74-3.9,20.69-9.21,2.26-1.8,4.22-3.13,4.37-3s2.11,4.06,4.53,8.82l4.22,8.59-2.19,4.3a52.48,52.48,0,0,0-3.2,8.12c-.86,3.28-1.48,4.06-5.31,6.56a74.78,74.78,0,0,0-7.34,5.31l-3.12,2.65H0v72.63H96.6l.47,3.2a8,8,0,0,1-1.41,6.17,136.71,136.71,0,0,0-11,23.43c-2.65,8-3,17.49-.86,21.63a16.11,16.11,0,0,1,1.33,3c0,.23-12.26.39-27.33.39-17.73,0-27.33.31-27.33.78s19.67.78,57.63.78h57.55V442c0,19.91.08,20.61,1.8,23.89a15.31,15.31,0,0,0,4.29,4.84,14.38,14.38,0,0,1,3.12,2.19c3.44,4,4.69,4.84,7.58,5.31,1.8.31,3.67,1.17,4.22,2,1.64,2.34,6.48,3.67,13.19,3.75,5.94,0,6.25-.08,8.75-2.58a10.79,10.79,0,0,0,3.12-5.85,11.27,11.27,0,0,1,.86-3.28,18.79,18.79,0,0,1,2.81,1.56c2.58,1.56,7.27,2.11,8,.94.23-.39-.47-8-1.48-17.11l-1.8-16.4-4.06-8.9c-2.19-4.92-4.22-9.37-4.45-9.92s19.36-.93,96.91-.93c92.15,0,97.3.08,97.3,1.32,0,2.19,2.58,5.55,6.33,8.2a24.32,24.32,0,0,1,4.06,3.52c.39.62,2.57,2.11,4.92,3.43s4.6,3,5,3.83,2.58,2.11,4.85,3.05a52.58,52.58,0,0,1,5.7,2.65c.93.55,5.07,1,10.3,1.09,6.56.08,9.22.4,10.55,1.33,4.29,3.05,10,.47,10-4.45,0-2.11-.94-3.36-6-8.2-6.79-6.32-6.79-6.71.55-7.49,5.38-.63,18.35-3.68,26.78-6.33l6.09-1.95H613.72l10.38,7.88a148.49,148.49,0,0,0,15.39,10.31c4.84,2.35,5.31,2.42,14.44,2.35,18.2-.16,50.69-5.47,99.41-16.25l18.82-4.14,7.11,2.27c18.82,6,34.52,6,47.25,0l5-2.42H955c81.76,0,123.46-.24,123.46-.78s-20.15-.78-58.8-.78H960.83l-11.32-9.22c-6.72-5.54-11.87-10.39-12.73-12.1L935.22,396l14.21-46.7c16-53,15.23-46.85,7.11-53.1l-4.45-3.35,4.68-18.75,4.69-18.66,9.13-1.72c17.65-3.28,14.76-1.64,27.65-15.62,9.53-10.23,11.48-12.8,11.48-14.76,0-1.79,2-5.07,8.28-13.43,4.6-6.17,8.35-11.71,8.43-12.34.08-1.56-3.83-3.43-5.78-2.81a26.89,26.89,0,0,0-5.86,4l-4.29,3.51v-4c0-3.43-.24-4-1.48-4-2.27,0-6.1,3.59-7.11,6.64-.47,1.48-1.41,2.73-1.95,2.73-2.27,0-5.86,4.06-6.8,7.58-.78,3.12-1.25,3.75-4.14,5a66.85,66.85,0,0,1-16.71,4.21l-4.21.47,2.65-3.36c1.48-1.87,4.37-5.38,6.4-7.88,3.91-4.92,4.85-8.83,2.66-11.8-.94-1.25-2.42-.39-16.95,10.16-8.82,6.24-17.33,12.49-18.89,13.74-3.52,2.73-6.49,8.75-7.66,15.07-.39,2.58-3.9,12-7.73,21.09l-7,16.4h-5.15L905.1,302.69c-6.24,15.54-11.55,28.19-11.87,28.12S888,323.7,882.3,315.34,869.62,296.93,866.66,293c-6.17-8.28-17-19.37-23.9-24.44-3.28-2.42-4.76-4.06-4.84-5.23,0-2.42,4.6-43.42,5-43.73.15-.24,2.57.07,5.23.54,6.48,1.17,18.19,1.17,22.57,0,5.07-1.4,7.57-4.29,8.2-9.76.7-5.62,0-15.7-1.8-25.07l-1.41-7.1,2.58-3.83c3.75-5.54,3.44-7.11-2.34-13.35-10.39-11.25-10.7-11.72-10.7-15.15,0-11.48-7.5-32.1-14.21-38.89-5.08-5.23-9.37-5.78-24.21-3.28-16.48,2.89-36.47,9.45-48.81,16.16-3.59,1.88-6.64,3.44-6.79,3.44a3.7,3.7,0,0,1-.78-1.87c-.78-3.13-4.22-6.64-7.11-7.19-2.19-.39-4.06-2.19-11.17-10.7-4.76-5.7-11.48-13-14.91-16.4-5.86-5.78-6.41-6.09-8.83-5.62-10.15,2.11-30,11.17-38.26,17.41l-5,3.75-1.95-1.4c-3-2.27-11.48-3.13-24.13-2.58-26.94,1.17-54.35,5.62-62.08,10.15-6.33,3.59-21.09,20.93-25.77,30l-1.33,2.65L567.64,137c-8-15.93-25.77-29-42.56-31.31-6.71-.94-6.24-.08-5.62-9.92,1.33-23.5.47-33.58-3.82-41.47-4.92-9-16.17-15-34.83-18.58C470.58,33.69,452.93,33.77,443.56,35.8ZM425.13,60.63a176.58,176.58,0,0,0,15.07,13.2l6.32,4.68-5.85.47c-8.9.7-8.75,2,.15,1.49l7.5-.4L456,83.75c8.2,4,14.45,5.93,18.82,5.93,2.42,0,3.21-.55,6.25-4.37a34.84,34.84,0,0,1,5.7-5.94c2.11-1.48,2.34-1.48,6.25-.23,5,1.64,9.68,4.21,12.57,7.18,2,2,2.19,2.5,1.8,7-.47,5.94-3.91,13.67-7.89,17.65-4.92,4.92-11.79,5.54-17.8,1.64-3.6-2.27-4-1.17-.55,1.33a16.45,16.45,0,0,0,7.26,2.18l4.77.47L496,136.14c3.36,22.65,3.52,25.46,1.64,27.1-8.27,7.42-31.7,10-42.32,4.77-1.48-.79-2.89-1.8-3.05-2.35s2.11-2.11,5.08-3.59c7-3.59,14.13-8.9,17.8-13.35,1.64-2,2.82-3.83,2.58-4s-4,1.25-8.51,3.21c-17.65,7.81-34.75,12-43.81,10.93-5.62-.7-10.7-3.28-12.81-6.48-4.37-6.56-6.09-22.57-5.54-49.75.47-21.78.39-21.55,4.68-21.55,1.33,0,2-.31,1.72-.86s-1.48-.55-2.81-.31c-2.19.47-2.26.39-2.26-2.19,0-5.93,2.42-16.48,4.84-21,1.33-2.5,2.58-4.53,2.81-4.53S420.36,56,425.13,60.63ZM851,108.58c2.5,2.81,6.32,10,8.74,16.71,2.11,5.7,3.21,11.09,4.38,21.16.47,3.67,1.09,4.61,6.17,10.15,9.37,10.16,9.91,10.94,9.06,13.12a33.17,33.17,0,0,1-2.82,5.08l-2.18,3.2,1.48,7.19c1.8,9.37,2.5,24.36,1.17,28.26-1.48,4.61-5.93,6.25-16.79,6.25-12.49-.08-21.78-2.34-39-9.68-1.8-.78,2.26,3.51,10.3,10.85l8.83,8-.47,4.76c-.31,2.66-.62,5.15-.78,5.7s-3.05.08-9.14-1.87c-14.29-4.45-30.38-10.62-30-11.56.23-.39,1.64-4.61,3.2-9.29a52.81,52.81,0,0,0,3.3-16.61l.47-8h2.26a11.65,11.65,0,0,0,7.57-3.44c1.41-1.71.4-1.56-2.18.24-4.77,3.43-10.23,3-14.84-1.1-3.36-3-6.87-10.23-7.57-15.3-.39-3.13-.24-3.67,2.18-5.94C797.78,163.16,804,160,807,160c1.88,0,3.28.94,6.8,4.69l4.37,4.68,5-5.23a95,95,0,0,0,7.89-9.68c7-10.62,13.35-26.48,16-40.3.79-4,1.64-7.26,1.88-7.26A6.83,6.83,0,0,1,851,108.58Zm-85.59,7.65c1.33.78,4.61,6.09,4.61,7.65,0,.32-1.41,1.64-3.13,3a30.42,30.42,0,0,0-9.83,13.9l-1.72,4.77-3.36.23c-9.37.62-9.29-10.07,0-22.49,5.11-6.82,9.49-9.09,13.39-7.06Zm-89,8.77c2.49,4.29,6.09,11.87,6.09,12.8a18.91,18.91,0,0,1-4.69.32c-2.65,0-4.68.31-4.68.78s1.17.62,3,.39c3.28-.47,7.27.39,7,1.56-.08.39-1.4,1.17-2.81,1.72a16.2,16.2,0,0,0-5.15,3.2c-1.33,1.25-2.89,2.11-3.52,1.95-.86-.39-.94.55-.55,4.77l.63,5.15h-2.66c-2.34,0-2.81-.39-4.37-3.51-2.11-4.38-6.79-7.81-12.18-9.06-9-2-18.59,3.75-20.77,12.34l-1,3.9L622,165.68l-8.9,4.45V160.9c0-5,.23-12,.54-15.54L614,139l4.37-.47c17-1.8,31.32-6,45.06-13.28,5.16-2.73,9.45-5,9.69-5s1.74,2.07,3.31,4.75ZM264.34,144.19c13.35,10.93,24.75,20.38,25.38,21.08,1.09,1.1-7.81-3.36-19.29-9.76-4.69-2.58-4.84-2.58-5.62-1.09a14.09,14.09,0,0,0-.86,5.23c0,3.59.23,3.9,5.7,9.29a101,101,0,0,0,7.73,7.19c2.11,1.56,2.11,1.56.94,5.31-1.17,4.06-1.49,14.13-.47,14.76.39.23.7-2.35.7-5.63a31.58,31.58,0,0,1,1.25-9.52l1.33-3.52-3.28-2.73c-6.41-5.15-12.18-11.32-12.73-13.51-.63-2.5.08-6,1.25-6s28.5,14.68,30.3,16.32c.86.7,2.65,4.76,4.06,9.06s4,11.55,5.86,16.16l3.28,8.43h-4.61c-3.83,0-7,.86-17.26,4.77l-12.65,4.76-8-4-8-4,2-2a17.37,17.37,0,0,1,4.69-3.12c3.12-1.25,5-4.84,5-9.53C271,187,269.1,174,268.4,174c-.47,0-.55,1.4-.24,3.28s.71,6.95,1,11.32l.47,8-2.5,2.42c-1.33,1.33-2.89,2.34-3.44,2.11s-1.64-4.69-2.73-11.87c-.94-6.41-2-11.8-2.11-12-1-1-.86,1.33.94,12.81l1.95,12.41-2.11,1.8c-2.42,2.11-4.06,2.26-4.6.39-.16-.7-1.33-6.09-2.43-11.87-2.26-11.87-2.57-12.88-3.28-12.26-.23.31.71,6.09,2.11,13,2.74,13.12,2.66,14.22-.7,15.15-1.33.32-1.8-.78-4-9-4.69-17.8-5.16-20.61-3.75-23.58.7-1.41,4.29-5.78,8-9.68l6.8-7.11-8.36-11.4c-10.15-13.9-12.88-18.2-12.88-20.15,0-2.26,1.48-4.61,2.57-3.9C239.74,124.12,251.06,133.33,264.34,144.19ZM701.8,146c5.55,6.25,11.33,13.28,12.89,15.62,5.62,8.2,6.64,19.21,3,31.55-2.5,8-2.74,9.76-1.49,9.76,1.88,0,9.45-5.54,14-10.15,8.44-8.59,10.93-15.93,10.93-32.17a102.85,102.85,0,0,1,.86-14.68l.86-3.91,2.11,2.27a8.9,8.9,0,0,0,8.51,3l2.11-.47.16,5.63c.23,7.81,2.65,16.55,7.26,26.08,9.92,20.93,19.6,29.75,34.52,31.78,3.35.47,6.09,1,6.09,1.33,0,1.48-5.23,15.07-8.12,21.4-1.8,3.82-7.81,15.07-13.36,25s-12.8,23.5-16.16,30.37l-6.25,12.34-9.06-9c-10.15-10-16.24-14.21-25.07-17.65-7.57-2.89-11.94-3.67-29.67-5.15-15.77-1.33-15.54-1.25-21.87-7.73l-3.43-3.52-1.72-10.54-1.64-10.54,5.08-.47c12.49-1.25,20.53-4.29,22.72-8.59,1.64-3.36,1.48-30.22-.23-43.11-.78-5.23-1.33-9.83-1.33-10.23s1-1.17,2.34-1.71c3.2-1.33,7.58-6.33,8.51-9.92,1.33-4.61,1-7.42-1.17-11.87a17.81,17.81,0,0,0-11.32-9.06c-2.19-.47-2.27-.7-2.27-4.92,0-3.75.16-4.22,1.1-3.28C691.26,134,696.26,139.74,701.8,146Zm-16.32-.07.78,3.12H682.2a13.67,13.67,0,0,0-5.15.78c-.94.63-.78.78.78.78,1.87,0,1.95.16,1.72,4.06-.31,4.61,1.09,7.42,3.28,6.64,1.48-.55,1.79-6.72.47-9.22-.71-1.24-.55-1.48.78-1.48a7.16,7.16,0,0,0,2.11-.23c1.09-.39,5.93,21.39,5,22.33-.39.39-2.34.55-4.45.39-3.75-.23-3.82-.31-8.59-6.56-4.37-5.62-4.92-6.79-5.39-10.93-.54-4.37-.39-4.84,1.57-7.19,2.26-2.65,6.87-5.54,9.06-5.62.84,0,1.55,1.08,2.09,3.11Zm9.37-1.64c5.86,3,8.75,7.57,8.75,13.82a14.57,14.57,0,0,1-8.2,13.12l-2.34,1.25L691.65,166a107.49,107.49,0,0,1-1.87-14.84c-.47-9.47-.31-9.63,5.07-6.89ZM656.67,148c13.74,6.87,10.31,25.77-5.23,28.66-6.64,1.32-14.69-3-17.73-9.38-1.87-3.9-1.25-10.15,1.4-14.13s8.83-7.18,13.83-7.18a17.51,17.51,0,0,1,7.73,2ZM128.93,159.73a14.4,14.4,0,0,0,4.76,2.73c4.45,1.33,8.2-.16,12.73-4.92,2.11-2.26,4.14-3.75,4.76-3.51a14.26,14.26,0,0,1,3.21,3.67c1.87,2.89,2.1,3.82,1.87,8.82-.62,12.73-.55,13.51,1.17,15.85,1.88,2.5,6.48,5.86,7.34,5.31.31-.23,1.17-2.81,1.95-5.77,1.8-7.58,2.82-8.28,11.25-8.28,8,0,10.31,1.17,11.87,5.62s1.33,14.92-.31,18c-2.19,4.14-5.7,6.09-10.86,6.09-2.5,0-4.53.24-4.53.47,0,.94,5.08,1.48,7.58.78,2-.62,2.81-.39,5.07,1.49a29.46,29.46,0,0,0,14.14,6.4l5,.86,1.71,6.17a98.43,98.43,0,0,0,4.46,12.8c1.56,3.67,2.73,6.72,2.57,6.88s-4.14,1.95-8.9,4c-13.9,5.93-23.82,11.4-27.57,15a34.54,34.54,0,0,1-3.59,3.13c-.08-.08-.86-1.8-1.79-3.83l-1.72-3.59,5-12c7.34-17.57,7.57-20.07,1.17-11.4-9.14,12.34-26.55,24.68-36.78,26.08-3.28.47-3.83.24-6.49-2-3.51-3.12-8-12.1-11.79-23.82-2.81-8.59-2.81-8.59-6.79-10.93a22.46,22.46,0,0,1-4.84-3.67c-.63-1-.08-4.14,1.87-12.26l2.66-10.85-2.58-6.56c-3.59-9.3-4.69-14.14-5.31-22.18l-.47-7.19,4.14-.54a35.38,35.38,0,0,0,8.9-3l4.77-2.5,1.32,3.44A21.13,21.13,0,0,0,128.93,159.73Zm544.68,2.81c1.33,1.8,4.3,5.86,6.64,9.06l4.22,5.78-5.08,4.53c-2.73,2.49-4.76,4.76-4.53,5s2.81-1.71,5.78-4.45c4.45-4.29,5.08-5.23,4.38-6.56s-.47-1.48,3-1.48c4.61,0,4.22-.86,5.94,14.84,1.4,13.35,1.25,35.61-.24,38.34-2.11,3.75-11.32,6.48-24,7.11-14.37.7-26.08-1.72-35.3-7.35-2.42-1.4-4.53-2.42-4.76-2.26-.47.55,5.23,7.26,9.37,11.09a60.9,60.9,0,0,0,23.82,13.59c5.47,1.64,5.54,1.64,6,4.84.47,2.89.16,3.9-2.89,9.14-7.65,13.11-8.74,14.91-9.21,14.91-.31,0-48-25.38-48.89-26.08,0,0-.54-12.18-1.09-26.94-.78-23.59-.78-26.94.23-27.49,2.27-1.25,4.92-3.67,4.46-4.14-.24-.23-1.72.47-3.28,1.64-6.72,4.76-15.54,2.65-20.54-4.76-3.28-5-5.78-11.87-5.78-16.17,0-2.73.47-3.67,3-5.93,3.51-3.21,11.63-7.27,14.68-7.27,1.72,0,3.43,1.25,7.65,5.55,3,3,5.62,5.15,5.86,4.76s4.37-2.73,9.21-5.15l8.75-4.38.78,3c3.51,12.73,20.62,17,30,7.5a15.3,15.3,0,0,0,4.84-9.92c.54-3.28.78-3.67,2.65-3.67C670.65,159.26,671.82,160.12,673.61,162.54Zm-96.91,8.59a106,106,0,0,1,5.55,12c1.87,5.39,5.54,11.09,8.59,13.51a16.75,16.75,0,0,0,10.93,3l2.42-.39.47,8.28c.31,4.61.78,16.71,1,26.86l.55,18.51-4.84,7.73c-4.06,6.41-5.31,7.89-7.5,8.52-3.2,1-2.65,3.35-5.85-23.28-1.25-10.54-3-21.47-3.91-24.2-3.43-11.17-12.73-22.1-23-27.18L556,191.9l4.29-4.84c4.77-5.23,10.23-15.31,11-20.15.32-1.72.71-3,1-3s2.23,3.24,4.41,7.22Zm432.71,29.52c-.24,2.65-.47,9.21-.47,14.52v9.69l-3.6,3.67-3.59,3.67.55-15.15c.55-15.7,1.09-18.59,4.06-20.31s3.64-1.17,3,3.91Zm15.07-4.06c.86.54.78,1.17-.78,3.28-2.5,3.67-13.2,17.88-13.44,17.88-.07,0,0-3.2.24-7.11l.39-7,4.68-3.91C1020.1,196,1022.29,195.18,1024.48,196.59ZM979.57,201c.63,2.34.08,3.28-7.41,12.81-5.78,7.26-6.41,8.82-3.6,8.27a62.24,62.24,0,0,1,6.8-.86,58.46,58.46,0,0,0,10.77-2.5c3.21-1,5.86-1.79,6-1.64.54.55-.78,1.8-3.13,3.13-2.73,1.48-4.21,4.92-4.21,10a9.1,9.1,0,0,1-2.42,6.41L980,239.54,976.45,238c-4.14-1.88-10.93-2.74-14.13-1.8-1.72.47-.86.7,4.45,1.09,4.53.39,7.73,1.1,10,2.27,1.88.93,3.52,1.64,3.67,1.48,5-5.47,5.86-7.11,5.86-11.56,0-3.75.39-5,1.87-6.79,1-1.17,2.19-1.95,2.5-1.56s1,3.75,1.49,7.57l.86,7-3.44,6.48c-1.87,3.52-3.59,6.64-3.9,6.95a113.89,113.89,0,0,1-12.26,2.66c-6.41,1.09-12,2.42-12.5,2.81s-1.48,3.51-2.34,6.87L957,267.73l-12-7c-6.64-3.9-12.18-7.18-12.42-7.42s.71-3,2.11-6.4a64.74,64.74,0,0,0,3.13-10.54c.93-5.31,3-9.61,6.09-12.5s33.26-24.68,34.28-24.75C978.72,199,979.34,199.94,979.57,201ZM409,203.15l.24,2.1h-5.63c-6.32,0-6.4-.54-.31-3C408,200.34,408.73,200.49,409,203.15Zm591.7,19-.55,11.79-5.47,5.78-5.38,5.78,2.1-3.9c2.11-3.83,2.19-4.22,2.19-16.79.08-11.56.24-13.2,1.72-15.62a10.63,10.63,0,0,1,3.51-3.67c1.8-.94,1.88-.86,2.11,1.95.2,1.53.12,8.17-.19,14.65ZM378.59,206.5c17.64.39,25.14.79,24.91,1.41-.16.47-1.64,1.56-3.28,2.34-2.42,1.25-5.63,1.64-14.84,2.11-15.7.78-21.94,3-35.92,13.12-7.73,5.55-8.51,6.25-8,6.79.24.24,2-.78,3.91-2.34s3.82-2.81,4.37-2.81,9.53,5.31,12.49,7.58c.16.07-.62,1.4-1.79,3l-2.11,2.74H346.1c-11.25,0-13-.24-20.85-2.35-10.31-2.81-19.91-3.75-24.29-2.34s-16.32,9.37-35.06,23.43c-29.75,22.33-41,31.16-41,32.09,0,1.25.71.78,7.66-4.68l6.79-5.39,3.12,1.8c1.72.93,5.55,3,8.44,4.6,3.75,2.11,5.07,3.2,4.6,3.83s-6.48,12-13.43,25.54-12.8,24.75-13,24.91c-.31.39-59-57.4-59.9-59-.86-1.41,1.25-10.93,3.28-14.92a48.43,48.43,0,0,1,5.63-7.57c3.59-3.91,5.7-5.23,16.63-10.62,7-3.36,21-9.61,31.31-13.82,25.77-10.62,72.94-28.82,75.75-29.21C306.2,206,353.21,206,378.59,206.5Zm37.48,1.25c-.55,1.64-5.39,3.6-10.31,4.14l-4.53.55,2.58-2.73c2.5-2.58,3-2.82,7.57-2.82C415.05,206.82,416.3,207.05,416.07,207.75Zm-4.53,9.37c3.83,16.25,12.57,33.12,22.57,43.74l4.45,4.76,6.56-1.72a73.15,73.15,0,0,1,7.89-1.64c3.51,0,10.85,12,10.85,17.73,0,2.81-.47,3.59-4.29,7.18-5.86,5.55-13.28,9-18.36,8.51a13.22,13.22,0,0,1-11.16-7.8c-.94-2-2-3.67-2.42-3.75-.94,0,.23,3.9,1.95,6.32a12.69,12.69,0,0,1,1.48,2.58,68.82,68.82,0,0,1-4.29,7.26c-3,4.77-4.3,7.58-4.3,9.45,0,2.5,8.2,37.95,9.14,39.44S423,357.38,416.07,360c-4.45,1.64-16.95,3.6-18.66,2.89-.63-.23-1.57-2.73-2.11-5.78a46.85,46.85,0,0,0-3.52-10.46c-3.12-6.56-12.34-15.85-19.13-19.44-2.73-1.41-4.76-3-4.61-3.44s2.89-1.33,6.09-1.8a100.16,100.16,0,0,0,11.48-2.57c6-1.8,21.24-9.14,21.24-10.31,0-.78-4.13-1.25-15.22-1.88-11.33-.62-23.43-2.42-31.47-4.76-18.43-5.39-23.67-12.26-20.07-26.47,3.43-13.43,16-32.8,32.33-49.59l5.93-6.25,2.73,1.1c1.49.54,3.36,1.32,4.22,1.64,1.09.46,1.41.39,1.09-.47-.23-.63-1.79-1.64-3.59-2.27l-3.28-1.25,2.35-2.26c2.42-2.34,2.57-2.34,13.51-2.81,6.09-.24,12-.47,13.19-.55C410.45,213.06,410.68,213.45,411.54,217.12Zm-46.39,8-3.51,7.5-5.23-3.28L351.18,226l2.26-1.8c3.2-2.58,14.68-8.28,15-7.42.07.42-1.33,4.09-3.29,8.31Zm-42.09,13.74c8,2.11,9.84,2.35,21.71,2.35h12.89l-5,7.26c-5.86,8.43-11.48,19.37-13.35,25.77-1.64,5.54-1.64,13.74-.08,16.79,2.73,5.31,10.7,10,22,12.88,6.09,1.57,6.56,1.88,6.56,3.75,0,1.56-1,2.74-4.3,5.08-2.34,1.64-4.29,3.43-4.29,4,0,1.41,3.2,3.36,5.62,3.36,2,0,2.19.31,2.19,2.42,0,1.87-.31,2.34-1.17,2a56.08,56.08,0,0,0-6.41-1.33c-8.82-1.56-18.43.08-27.41,4.69l-3.28,1.72L291.81,309,255,288.34,253.64,281c-.7-4.06-1.33-8-1.33-8.74s4.45-4.77,12.26-10.62c23.2-17.42,33-24,37.88-25.23,3.75-.93,10.93-.07,20.61,2.42ZM633.71,268c12,6.41,22,11.87,22.18,12s-1,6.4-2.66,13.9l-3,13.59-2.88-2.11c-39-29-49.2-36.55-49.2-37a77.3,77.3,0,0,1,4.45-7.49l4.53-7L609.5,255C610.75,255.7,621.68,261.48,633.71,268Zm41.86,18.28c-2.42,9.6-4.53,17.41-4.77,17.41-.54,0-12.88-23.51-12.73-24.21.08-.31,2.89-5.07,6.17-10.54l6-9.92,4.84,4.92,4.92,5Zm-51.7,3.2c14.52,10.77,26.63,19.68,26.86,19.68s.63-1.41.94-3.13c.39-2.42.86-3.12,2-3.12a2.06,2.06,0,0,1,1.87.94c.24.54.16,10.46-.15,21.94l-.63,20.93-8.51-9.84c-22.8-26.24-45.45-43.42-65.83-49.9-6.87-2.11-19.76-4.06-21.94-3.2-.86.31-1.1.23-.55-.32.86-.85,37.88-14.13,38.89-13.9.34,0,12.52,9,27,19.88Zm75.44-19c20.3,1.72,29.36,4.69,40.76,13.2,4.84,3.67,34.83,34.2,52.24,53.18,13.28,14.52,30,34.05,30,35.06,0,.24-1.87-.94-4.06-2.73-7.5-5.7-19.29-10.54-30.3-12.42-6.09-1.09-19.91-1.48-29.28-.78l-5.47.39-10.31-19.52c-5.62-10.78-10.46-19.91-10.62-20.31s-.55-.62-.78-.39,4.22,9.38,9.92,20.31l10.38,19.91-2.34.55c-1.33.23-4.53.62-7,.78l-4.68.23-4.22-12.1c-2.34-6.64-4.3-12.11-4.37-12.18-.55-.55-36,5-36.24,5.62s1.41,5.78,3.52,11.87l3.74,11-3.51.47c-8,1.09-5.86,4.29-19.68-29.6-9.45-23.19-12.18-30.69-11.56-31.47,1.33-1.56,1.72-1.33,3.75,2.27,1.33,2.26,2,2.89,2.42,2.1.32-.62,2.58-9.05,5.08-18.89,4.45-17.5,4.53-17.73,6.56-17.73,1.13,0,8.39.54,16,1.16Zm-447.15,8.75c1.32,8.59,1.48,8.43-3.21,5.7a20.84,20.84,0,0,1-5.46-4.14c-1.41-1.88-1.41-2,2.73-5.08,2.19-1.79,4.3-3,4.53-2.65a37.82,37.82,0,0,1,1.41,6.15Zm325.71,8c26.48,7.58,56.07,33.11,88.17,76.06,4.76,6.33,8.67,11.87,8.67,12.18s-5.23,1.17-11.72,2-11.71,1.71-11.71,2,.08.7.23.7,5.63-.7,12.26-1.56l12.11-1.56,17.65,2.81,17.72,2.89L720,389.7a268.07,268.07,0,0,0,39.12,25.61c5.63,2.89,9.92,5.47,9.53,5.7-1.17.7-43.34,9.68-61.14,13-34,6.25-57.09,8.52-63.88,6.09-4.84-1.71-10.86-5.54-21.09-13.43l-9.06-7-1.71-8.44c-2.27-10.7-3.67-15-7.42-22.8-4.84-10-12-17.1-20.31-20.23-2.11-.78-11.55-2.26-22.41-3.51-10.38-1.17-19-2.27-19.21-2.5-1.17-1.33-10.78-20.69-11.87-24.13-2-6-2-19.76,0-25.77,3.67-10.78,12.11-21.63,20-25.61,3.2-1.72,4.22-1.8,12.5-1.49a69.27,69.27,0,0,1,14.82,2.06Zm-428.95,6.4c-1.56,1.88-5.94,7.81-9.68,13.28l-6.88,9.92-27.48.08c-17.89,0-27.57.31-27.57.78s9.45.78,26.86.78h26.94L126,325.91l-5,7.41H99.1c-14,0-21.79.32-21.79.79s7.58.78,21.16.78c11.72,0,21,.31,20.85.7s-3,4.92-6.48,10.15c-6.17,9.29-6.32,9.45-9.21,9.45-3.13,0-6.8,2.73-6.8,5.08,0,1-5.15,1.17-47.63,1.17H1.56V290.37H151.73Zm114,.47,4.77,2.66-18.12,36.47c-10.07,20.14-18.35,37-18.59,37.64s-2-.16-5.78-3c-3-2.19-5.31-4.3-5.23-4.69.08-.62,11-21.86,29.68-57.86,4.06-7.89,7.65-14.21,7.88-14.06s2.75,1.46,5.4,2.86ZM301,315.36c14.21,7.89,25.93,14.45,26.08,14.53s-1.87,2.34-4.45,4.84a42.17,42.17,0,0,0-13,31c0,14.53,6.32,26.94,18,35.22,7.26,5.16,13.82,7.42,23,8l7.57.39,2,5.15c1.1,2.89,2,5.39,2,5.62,0,.39-71.22-.07-71.68-.46-.16-.16-2.5-18-2.5-19.37a.61.61,0,0,0-.63-.55c-.39,0-.39,2.5,0,5.62A46.31,46.31,0,0,1,288,412c-.16.7-10.23-6.17-28-18.9-15.22-11-27.8-20.3-28-20.61s8.12-17.42,18.19-38l18.35-37.32,3.46,2C273.79,300.21,286.91,307.55,301,315.36Zm66-.07c0,1.71-.39,3.35-.86,3.59-.86.54-5.39-1-5.39-1.88,0-.62,4.84-4.68,5.7-4.76.34,0,.55,1.41.55,3.05Zm144.23,8,15.78.94.47,4.76c.85,7.18,3.12,13.51,8.27,23.43,2.66,5,4.61,9.21,4.45,9.45-.46.46-55.05-5.7-56.07-6.33-.46-.31-.78-7.26-.78-17.34V321.38l6.1.47c3.3.31,13.14.93,21.81,1.48Zm-149.51,10.5,4.61,1.33-.55,7.11c-.31,3.9-.55,7.18-.63,7.26s-5.85-3.05-12.8-6.95-12.58-7.19-12.34-7.42a16.73,16.73,0,0,1,4.14-1.41,36.15,36.15,0,0,1,17.57.08Zm370.7,12.58c2.18,6.24,3.82,11.55,3.67,11.71-.32.39-34.29,4.14-34.6,3.9-.08-.15-1.87-5.23-4-11.24l-3.83-11.09,3.21-.47c19-2.81,28.5-4.14,29.83-4.22S728.9,336.37,732.42,346.37Zm-391.79-9c.94.78,1.64,4.52,2.89,14.6l1.56,13.66,4.46,4.46,4.37,4.45-2.11,6.79-2,6.79,2,5c1.1,2.74,2,5.16,2,5.39,0,.94-6.56.23-11-1.09-12-3.75-20.54-13.67-22.72-26.55-2-12.11,3.28-24.6,13.74-32.26,3.3-2.4,4.94-2.71,6.81-1.22Zm31.47,1.4c6.41,4.45,11.95,12.65,13.28,19.76l.55,3L381.87,360c-4.92-1.87-12-6.09-14-8.27-1.17-1.33-1.33-2.66-1-8.44.16-3.75.63-6.79,1.1-6.79a15.61,15.61,0,0,1,4.13,2.29Zm-17.72,6.33c5.46,3,10.15,5.77,10.46,6.09.55.47,8.44,38.34,8.44,40.21,0,1.33-4.92,4.14-10.08,5.94-6.56,2.19-7.65,2-8.9-1-3.36-7.88-3.36-7.81-1-15.46l2.11-7.1-4.53-4.14-4.6-4.14L345,354.33c-1.41-12-1.56-14.76-.86-14.76.21,0,4.91,2.5,10.29,5.55ZM445,352.93c5.39.54,8.75,1.24,8.75,1.79s-1,5.23-2.19,10.62l-2.18,9.76L444,379.32c-5.16,4.22-5.24,4.3-4.77,7.26.39,2.11.24,3-.39,3-3,0-14.84-1.95-14.84-2.42s6.56-27.88,7.89-33c.63-2.42,1-2.81,2.5-2.49C435.36,351.83,440.12,352.46,445,352.93Zm-63.56,8.12c3.2,1.09,4.53,2,4.84,3.2.7,2.73-1.17,11.32-3.59,16.32-2,4.22-7.34,10.54-8.13,9.68-.15-.15-1.79-7.88-3.59-17.1s-3.43-17.57-3.67-18.51c-.31-1.56.16-1.4,4.69,1.57a48.11,48.11,0,0,0,9.41,4.84Zm47.55-.24c-1,4.45-2.81,12.11-4,17l-2.18,9-10.86.47c-6,.23-11,.54-11.17.62s-1.79,1.56-3.74,3.36l-3.52,3.2-2.26-2.19L389,390.1l1.88-3.21a40.55,40.55,0,0,0,5-16.86l.47-5.86,6.64-.47a77.17,77.17,0,0,0,10.15-1.4,57.38,57.38,0,0,0,15.23-7.58c1.25-1,2.42-1.87,2.42-1.87s-.74,3.59-1.79,8Zm59.35-3.12,30.22,3.36v8.74c0,8.44-.07,8.83-1.71,9.22-1,.31-13.75,3.75-28.27,7.65l-26.47,7.26L451.68,392l-10.31-2-.78-3-.78-3,5.31-4,5.31-4.06,2-9.84C455,354,455,354.41,456.6,354.41c.78,0,15,1.48,31.7,3.28ZM793.41,359c14.05,3.51,28.11,12.41,36.39,23.11,6,7.81,10.46,18.2,10.46,24.44,0,7.81-11.09,16.79-24,19.6-5.86,1.25-17.57,1.1-25.15-.39-16.86-3.2-37.32-13.12-59.19-28.66-8-5.7-8.75-6.48-8.43-8.27.23-1.1,1.4-7.81,2.49-14.92s2.19-13,2.35-13.2,7.42-1.09,16.08-2.1C764.67,356.36,783.18,356.52,793.41,359Zm-66.69,3c-.16.78-1.33,7.27-2.5,14.45-1.49,9.45-2.35,12.89-3.05,12.5-3.36-2-8.9-7-8.9-8,0-.62.62-5.23,1.33-10.15l1.4-9,3.83-.47C726.4,360.5,727.18,360.5,726.72,362ZM527,361.91l4.06.54v12.81l-4.53,1.33a44.22,44.22,0,0,1-5.47,1.25c-.7,0-.93-2.42-.93-8.2C520.09,360.42,519.54,361.05,527,361.91Zm186.56,2c-.24,1-.86,5.07-1.41,9.13-.62,4.38-1.4,7.42-2,7.66s-8.28-.79-17.1-2.19L676.82,376l-3.05-4.21c-1.72-2.27-3-4.3-2.81-4.46s8.2-1.17,17.8-2.34,18.28-2.11,19.14-2.26a35.06,35.06,0,0,1,3.82-.39c1.88-.12,2.11.11,1.8,1.6Zm-163.45.62c7.73.86,14.37,1.56,14.84,1.64s-5.62,1.72-13.59,3.75-15.38,4-16.55,4.37l-2.19.55V368.9c0-7-2.07-6.53,17.45-4.34Zm36.55,6.09c11.79,5.78,20.69,21.56,24.29,42.72l1,6.25-69.5.39c-64.81.39-69.81.46-73.09,1.79-4.69,1.88-20.38,5.7-28,6.8l-6.09.93-4,6.17L427.16,442l2.81,2.42c2.5,2.26,2.65,2.58,1.41,3.05-2.27.85-7,.78-10.94-.16-2.57-.7-3.75-1.41-4.29-2.81-1-2.74.93-11.09,4.76-20.7,1.72-4.29,3-8,2.73-8.27-.54-.63-.7-.39-3.28,6.09-3.59,8.74-5.7,16.16-5.7,20.07,0,3.2-.15,3.43-1.71,3a12.59,12.59,0,0,1-6.72-5.15c-2-3.75.86-15.77,7-29.52,1.25-2.73,2-5.15,1.79-5.39-.62-.7-1.09.08-4.37,8.12-4.06,9.84-6.17,16.87-6.4,21.56a14,14,0,0,1-.39,3.75,15.7,15.7,0,0,1-2.35-1.1c-2.65-1.4-5.31-4.21-6-6.56s2.5-13.19,7-23.81c1.95-4.61,3.2-8.36,2.81-8.36-1.56,0-9.91,22.1-10.77,28.5l-.63,4.69-3.28-3.2c-3-3-3.28-3.6-3.28-7.11,0-8.43,5.08-22.88,10.08-28.5,5.15-5.94,16.79-5.86,51.38.23l13.43,2.34,26-7c14.29-3.83,36.7-9.84,49.82-13.2s24.52-6.4,25.38-6.64a66.25,66.25,0,0,1,9.76-.31c7.55,0,8.65.28,13.41,2.62Zm-468.23,7.26c25.38,11.33,59.35,27.73,62.63,30.15,2,1.48,4.37,5.54,10.07,17.26l7.5,15.22,1.79,15.31c1,8.43,1.8,15.93,1.88,16.63,0,2-4.69,1.88-7.42-.31-2.35-1.8-2.27-.78-.71-17.65.32-2.89.24-4.84-.23-4.84s-1,3.28-1.33,7.18c-.7,10.62-2.11,19.45-3.28,21.87-1.4,2.66-3.36,3.75-6.87,3.75h-2.81v-14c0-8.82-.31-14.05-.78-14.05s-.78,5.23-.78,14.13v14.21l-4-.39c-2.66-.31-4.53-.93-5.63-2.11-1.64-1.64-1.72-2.34-1.72-15.69,0-7.73-.23-14.06-.46-14.06-.78,0-1.64,19.52-1,23.12.24,1.79.16,3.43-.16,3.67-1.32.78-6.09-1.49-7.65-3.6s-1.64-3.12-1.48-14.29c.08-6.87-.24-12-.63-12s-.7,5.15-.7,11.71-.31,11.71-.7,11.71c-1.49,0-5.47-4.76-6.41-7.57-1.17-3.51-1.4-21.48-.46-39.12.46-8.36.39-11.87-.16-11.48-.47.23-.86,2-.86,4V420l-29.44-.16-29.52-.23-1.79-3.52c-3.21-6.17-1.57-17.26,4.45-30.53,1.79-4.06,8.59-16.32,9.06-16.32,0,0,8.94,3.91,19.56,8.67Zm745.92,30.38,13.36,11.33-21.17.23c-11.63.08-21.32,0-21.55-.23s.78-1.64,2.19-3.21c3.59-4.14,4.76-7.34,4.14-11.63-.47-3.44-.32-3.75,2.88-7,3.95-4.06,1.45-5.39,20.11,10.54Zm-475.81-.86a60,60,0,0,0-1.71,7.27l-1.25,6.09H383c-2.5,0-2.58-.16-3.44-4.53-.54-2.42-1.4-6.64-1.95-9.3-.94-4.76-.94-4.76,1.09-6.32l2-1.48,4.14,3.51c2.88,2.45,4,3.93,3.66,4.79Zm-11.24,3.75c.78,4.22,1.48,8.12,1.48,8.59,0,.78-1.95,1-7.34,1H364.1l-2.34-5.86c-1.64-4.14-2.11-6-1.49-6.17l4.46-1.25a56.67,56.67,0,0,0,7-2.73c2-1,3.67-1.72,3.75-1.56s.92,3.83,1.78,8Z"/><path d="M419.74,91.79l.55,6.95-4.14,4-4.06,3.91,2,3.43c2.26,3.91,5.07,6.72,5.86,5.86.31-.24-.55-1.64-1.88-3a21.42,21.42,0,0,1-3.36-4.45c-.93-1.79-.78-2.11,3-5.46l4.06-3.6-.55-6.79c-.31-3.75-.86-7-1.25-7.26S419.43,87.49,419.74,91.79Z"/><path d="M436.84,87.42c-.39.62,0,.78,1.33.46,1.8-.46,1.87-.31,1.64,2.58-.47,4.45.39,7,2.19,7s2.73-2.81,2.1-6.79c-.46-2.74-.46-2.74,1.8-2.27,2.42.47,3.28-.55,1.09-1.4S437.39,86.48,436.84,87.42Z"/><path d="M489,89.84c-2.5,3.67-4.38,8.66-3.83,10.23.16.46.94-.94,1.64-3.13a15.58,15.58,0,0,1,2-4.53c.36-.24,1.56.71,2.66,2s2.26,2.27,2.49,2-.62-1.56-1.95-3.12c-2.34-2.65-2.34-2.65-.86-4.06,1.64-1.48,2-2.73.78-2.73A12,12,0,0,0,489,89.84Z"/><path d="M409.43,87.88a1.42,1.42,0,0,0-1,1.1c0,.47.31.62.7.39s.62,1.33.62,3.43c-.07,2.66.39,4.38,1.18,5.16,1.17,1.17,1.32,1.09,2.57-.78a6.57,6.57,0,0,0,.94-4.92c-.31-1.64-.16-3.28.39-3.91s.23-1-1.8-.93A11.24,11.24,0,0,0,409.43,87.88Z"/><path d="M435,119.75a30.18,30.18,0,0,1-6.64,2.42c-4.84.78-6.17,2-1.64,1.56,4.29-.55,12.18-3.83,12.18-5.08C438.87,117.64,439.26,117.48,435,119.75Z"/><path d="M852.29,136.53c-4.53,2.27-12,8.91-11.09,9.84.31.24,1.79-.93,3.36-2.73,2.88-3.2,11.08-7.89,13.82-7.89.78,0,1.4-.39,1.4-.78C859.78,133.57,857,134.11,852.29,136.53Z"/><path d="M857.6,147.47c-3.52,1.56-7.66,5.23-6.88,6,.24.31,1.57-.47,2.82-1.72l2.34-2.26v2.34a11.27,11.27,0,0,0,1.56,4.84c1.33,2.19,1.8,2.5,2.73,1.72,1.49-1.25,1.49-5.23.08-8-1-2-1-2.27.16-2.89C863,146.06,860.88,146.06,857.6,147.47Z"/><path d="M804.34,167.54a5,5,0,0,0,1.56,2.18c1.48,1.41,1.48,1.41-.78,4.06s-3,4.14-1.72,4.14c.31,0,1.41-1.32,2.42-2.89,1.72-2.73,1.88-2.81,2.89-1.4a16.83,16.83,0,0,1,1.95,4.45c.39,1.64,1.1,3,1.57,3,1,0,.31-2.35-2-7C808.4,170.5,804.34,166,804.34,167.54Z"/><path d="M856.66,187.22c0,1.71,14.21,4.06,15.15,2.49.39-.54-.55-.85-2.81-.85A36.65,36.65,0,0,1,858.46,187C857.36,186.67,856.66,186.75,856.66,187.22Z"/><path d="M643,140.91c-5,1.17-14.44,6.32-15.07,8.2-.23.7.39.54,2-.47,7.58-5,14.22-7.42,20.38-7.42,1.8,0,3.52-.39,3.75-.78C654.72,139.35,648.7,139.58,643,140.91Z"/><path d="M650.11,151.92c-3.91.86-6.64,2-6.64,2.73,0,.47.63.55,1.41.24,3.74-1.57,4-1.49,3.59,1.32s1.33,8.44,2.81,8.44c2.11,0,2.81-6.25,1.17-10.39-.39-.94-.15-1.33.7-1.33s1.25-.39,1.25-.78C654.4,151.37,652.92,151.29,650.11,151.92Z"/><path d="M114.25,175.66a7.53,7.53,0,0,0-2.58,1,50.82,50.82,0,0,0,6.87-.07c5.55-.32,7.66-.08,11.33,1.17,5.07,1.79,6.16,1,1.24-.94C127.21,175.27,117.61,174.57,114.25,175.66Z"/><path d="M175,181.91c-.93,2.73-1.09,7.8-.39,11.55.86,4.06,1.64,2.66,1.25-2.26-.39-5.16,0-5.47,3.75-3.52,1.56.79,2.34.94,2.34.32,0-.47-1.4-1.41-3.12-2-3-1.17-3.13-1.41-2.66-3.91C176.8,178.78,176.1,178.7,175,181.91Z"/><path d="M116.36,188.07c0,.4.46.79,1.09.79s1.25,1.17,1.48,2.89c.55,3.43,2.5,6.48,4.06,6.48,2.11,0,2.11-3.52,0-8.75-.47-1.17-.23-1.25,2.11-.62,3.59,1.09,4.38.93,2.66-.39S116.36,186.83,116.36,188.07Z"/><path d="M137,223.37a52.17,52.17,0,0,1-6.09,4.69c-2.58,1.64-4.14,3-3.51,3,2.11,0,12.41-7.19,12.41-8.67C139.78,221.19,138.53,221.58,137,223.37Z"/><path d="M596.62,169.88a5,5,0,0,0,1.56,2.19c1.48,1.32,1.48,1.4-.94,4.37-2.89,3.67-2.34,5.08.55,1.56a9.3,9.3,0,0,1,2.73-2.42c.39,0,1.33,1.72,2.11,3.9s1.64,3.91,2,3.91c.78,0,.08-2.34-2-6.72C601.22,173.47,596.62,168.32,596.62,169.88Z"/><path d="M659.87,195.73c0,.39,2,.93,4.53,1.25s5.78.7,7.42,1,2.89.16,2.89-.31-2.19-1-4.84-1.33-6.1-.7-7.42-1S659.87,195.26,659.87,195.73Z"/><path d="M374.6,226.42c.63.62.32,1.64-1,3.59-3.13,4.61-2.11,7.81,1.72,5.31a10.27,10.27,0,0,0,3.12-4c.62-1.49,1.48-2.5,1.87-2.27s.78.16.78-.31c0-1-4.13-3.2-6-3.2C374.13,225.56,374,225.79,374.6,226.42Z"/><path d="M399.05,227.82c0,.39,1.87,1.64,4.21,2.74,4.92,2.42,11.33,8,13.75,11.79.93,1.48,2,2.73,2.42,2.73,2.18,0-6.09-9.6-11.4-13.27C404.28,229.23,399.05,227,399.05,227.82Z"/><path d="M381.16,235.24,378,241l-5.15.55c-3.75.39-5.32.86-5.86,2-.86,1.64-1,6.48-.31,9.14.93,3.51,1.56,1.71,1.25-3.6l-.32-5.38,3.75-.55c7.81-1,7.5-.78,11.09-7.42,1.87-3.44,3.05-6.25,2.58-6.25S383,232,381.16,235.24Z"/><path d="M399.67,238.21c1.95,1,2.19,1.8.7,2.42s-3.9,5.86-3.35,7.26a1.77,1.77,0,0,0,1.56,1.1c1.32,0,5.15-4.38,5.15-5.94s.78-1.4,2.89.63c1.87,1.79,2.42,1,.86-1.18-1.72-2.26-6.33-5.23-8-5.15S398,237.43,399.67,238.21Z"/><path d="M361.56,261.32c0,.32,1.49,1,3.36,1.49l4.69,1.4c.7.32,1.32.24,1.32-.23,0-.78-2.65-1.8-7.18-2.81C362.5,260.86,361.56,260.93,361.56,261.32Z"/><path d="M449.34,271.71c-3,.86-9.84,5.39-10.31,6.79-.16.63,1.4-.23,3.59-1.71A22.57,22.57,0,0,1,447,274c.24,0,.47,1.4.47,3s.39,3.36.86,3.67c.7.39.78-.55.55-3.44-.39-3.9-.31-4,1.87-4.45,1.17-.31,2.19-.86,2.19-1.25C452.93,270.77,452.62,270.77,449.34,271.71Z"/><path d="M28.5,307.79A19.51,19.51,0,0,0,17,325.91a17.84,17.84,0,0,0,4.92,13.19,19.72,19.72,0,0,0,26.7,2.58,20,20,0,0,0,3.7-28,15.72,15.72,0,0,0-1.4-1.64C45.53,306.3,35.53,304.43,28.5,307.79Zm16.64,1.79A17.2,17.2,0,0,1,54.27,320a18.09,18.09,0,0,1-9.45,22.41C33.5,348,19.68,340.62,18.27,328.2,16.48,313.33,31.63,302.87,45.14,309.58Z"/><path d="M36.08,318.25l-.16,8.05,5.7-.16,5.63-.16L42,325.75l-5.23-.31-.31-7.58-.24-7.57Z"/><path d="M942.56,82c-6.48,1.25-14.29,5.78-19.21,11-8.75,9.53-10.7,17.26-10.31,41.23l.24,14.45h96.13l5.93-3c13.43-6.64,21.09-21.08,18.74-35.37a34.49,34.49,0,0,0-25.53-28c-3.83-.94-9.84-1.17-33.58-1.09C959.11,81.25,944.51,81.56,942.56,82Zm71.92,4c26.08,12.89,24.21,50-2.89,60.21-4.53,1.72-5.31,1.72-50.84,2l-46.3.24V131.54c0-9.45.39-18.59.86-20.93a36.45,36.45,0,0,1,24-26.47c4.06-1.33,7.11-1.41,36.94-1.25l32.4.15Z"/><path d="M940.61,106.86c-.31.55,10.93.78,33.19.78s33.5-.23,33.18-.78-12.26-.78-33.18-.78S940.92,106.39,940.61,106.86Z"/><path d="M951.77,123.81c6.49.15,17.26.15,23.82,0s1.17-.24-12-.24S945.21,123.73,951.77,123.81Z"/><path d="M1042.28,289.36c-.86.86-.62,22.72.24,23.27.54.31.78-3.75.78-11.64,0-6.71-.08-12.18-.24-12.18A1.44,1.44,0,0,0,1042.28,289.36Z"/><path d="M1065.55,303.65c-7.26,7.26-13,13.51-12.65,13.82.63.55,27.1-25.38,27.1-26.47C1080,289.44,1077.89,291.23,1065.55,303.65Z"/><path d="M1063.44,327.62c3.6.16,9.22.16,12.5,0s.39-.23-6.48-.23S1059.85,327.55,1063.44,327.62Z"/><path d="M974.19,328.8c-.24.54-.32,15.93-.24,34.2l.24,33.19,33.5.23c26.31.16,33.65,0,34.2-.78,1-1.72.78-65.75-.31-66.84C1040.17,327.39,974.66,327.47,974.19,328.8ZM1041,362.22V395H975.36V329.4H1041Z"/><path d="M1016.51,360.58c-5.93,8.43-11.17,15.93-11.56,16.55-.46.86-2.49-.78-8.9-7.1-4.53-4.45-8.2-7.81-8.2-7.42,0,.86,15.7,16.79,16.56,16.79.47,0,24.05-33.19,24.05-34C1028.46,343.87,1026,346.91,1016.51,360.58Z"/></g></g></g></g></g></g></svg>